# xmcd
#
# Track frame offsets:
# 150
# 13656
# 29912
# 44771
# 57362
# 72609
# 87059
# 99048
# 113396
# 128114
# 143425
# 157710
# 172669
# 187311
# 202147
# 216931
# 231998
# 246681
# 260155
# 273857
# 287957
# 301337
# 317041
#
# Disc length: 4398 seconds
#
#
# Revision: 0
# Processed by: cddbd v1.5.1PL2 Copyright (c) Steve Scherf et al.
# Submitted via: FreeRIP 2.945 
#
DISCID=59112c17
DTITLE=Dick Haymes and HELEN fORREST - Together Again
DYEAR=2005
DGENRE=Classical
TTITLE0=I've Heard That Song Before - with Harry James  (Styne - kahn)
TTITLE1=Day In, Day Out - with Artie Shaw  (Mercer - Bloom)
TTITLE2=Time Waits For No One - with Toots Camarata (Friend - Tobias)
TTITLE3=They Say - with Artie Shaw (Mann - Weiss - Heyman)
TTITLE4=I Remember You - with Harry James (Schertzinger - Mercer)
TTITLE5=All The Things You Are - with Artie Shaw (Hammerstein II - Kern)
TTITLE6=Don't Worry 'Bout Me - with Artie Shaw (Koehler  - Bloom)
TTITLE7=Two Sleepy People - with Artie Shaw (Loesser - Carrmichael)
TTITLE8=Yours - with Benin Goodman (Sherr - Rodriguez. - Roig)
TTITLE9=I Had The Craziest Dream - with Harry James (Carrmichael - Loesser)
TTITLE10=Taking A Chance On Love - with Bennv Goodman (Duke - Fetter - LaTouche)
TTITLE11=Deep In A Dream - with Artie Shaw (DeLange - Van Heusen)
TTITLE12=Comes Love - with Artie Shaw (Stept - Tobias - Brown)
TTITLE13=Melancholy Mood - with Artie Shaw  (Knight)
TTITLE14=Many Dreams Ago - with Artie Shaw  (Sllllman\\Ahlert)
TTITLE15=Thanks For Ev'rything - with Artie Shaw (Gordon - Bevel)
TTITLE16=Cabin In The Sky - with Benny Goodman (Duke - LaTouche)
TTITLE17=I Heard You Cried Last Night - with Harry James (Duke - LaTouche)
TTITLE18=Dreaming Out Loud - with Benny Goodman (Coslow)
TTITLE19=Between A Kiss And A Sigh - with Artie Shaw (Burke -Johnston)
TTITLE20=How High The Moon - with Benny Goodman (Hamilton - Lewis)
TTITLE21=Skylark - with Harrv James (Mercer - Carmichael)
TTITLE22=I Don't Want To Walk Without You - with Harry  James (Loesser - Styne)
EXTD=Disc 3 of 3
EXTT0=
EXTT1=
EXTT2=
EXTT3=
EXTT4=
EXTT5=
EXTT6=
EXTT7=
EXTT8=
EXTT9=
EXTT10=
EXTT11=
EXTT12=
EXTT13=
EXTT14=
EXTT15=
EXTT16=
EXTT17=
EXTT18=
EXTT19=
EXTT20=
EXTT21=
EXTT22=
PLAYORDER=
